<svg width="20" height="20" viewBox="0 0 20 20" fill="none" xmlns="http://www.w3.org/2000/svg">
<g clip-path="url(#clip0_2167_6472)">
<path d="M14.95 14.95C13.5255 16.0359 11.791 16.6374 10 16.6667C4.16671 16.6667 0.833374 10 0.833374 10C1.86995 8.06829 3.30765 6.38055 5.05004 5.05004M8.25004 3.53337C8.82365 3.39911 9.41093 3.33199 10 3.33337C15.8334 3.33337 19.1667 10 19.1667 10C18.6609 10.9464 18.0576 11.8373 17.3667 12.6584M11.7667 11.7667C11.5378 12.0123 11.2618 12.2093 10.9552 12.346C10.6485 12.4826 10.3175 12.5561 9.98178 12.562C9.64611 12.5679 9.31268 12.5062 9.00138 12.3804C8.69009 12.2547 8.40731 12.0676 8.16991 11.8302C7.93252 11.5928 7.74537 11.31 7.61963 10.9987C7.49389 10.6874 7.43215 10.354 7.43807 10.0183C7.44399 9.68262 7.51746 9.35158 7.6541 9.04491C7.79074 8.73825 7.98775 8.46225 8.23337 8.23337M0.833374 0.833374L19.1667 19.1667" stroke="#5F5F5F" stroke-linecap="round" stroke-linejoin="round"/>
</g>
<defs>
<clipPath id="clip0_2167_6472">
<rect width="20" height="20" fill="white"/>
</clipPath>
</defs>
</svg>
