<svg width="173" height="172" viewBox="0 0 173 172" fill="none" xmlns="http://www.w3.org/2000/svg">
<path d="M43.4936 22.3727C53.0746 22.3727 63.3437 27.3033 68.1071 35.9081C70.1202 39.5456 71.0725 43.6895 71.3433 47.8143C71.657 52.6001 71.493 58.034 69.8351 62.5729C69.0706 64.6672 68.0036 66.6483 66.6961 68.4543C66.0304 69.3749 65.301 70.2508 64.519 71.0742C64.1225 71.4914 63.7132 71.8959 63.2895 72.2861C63.0379 72.5186 62.1922 73.0187 62.0935 73.3261C62.9853 70.5359 63.1669 67.7042 63.2927 64.7994C63.4217 61.8053 63.4631 58.7985 63.1414 55.8139C62.0616 45.8061 55.7008 37.5644 46.6836 33.2772C42.1765 31.1335 37.1933 30.0538 32.2053 30.0538C28.6108 30.0538 25.1549 30.6112 21.941 31.6272C27.1409 25.827 34.9923 22.3727 43.4936 22.3727Z" fill="#F4B503"/>
<path d="M17.9676 69.4004L17.9995 63.6113L25.9019 70.3894C26.0532 70.5184 25.886 71.8227 25.8812 72.076C25.8127 76.3505 25.5866 80.9785 27.0645 85.0572C22.5001 82.2542 19.1557 77.7137 18.2208 72.4008C18.0472 71.4087 17.9628 70.4069 17.9676 69.4004Z" fill="#009B42"/>
<path d="M27.5613 67.6056L18.7177 60.0901L27.5613 52.5779L36.4066 60.0901L27.5613 67.6056Z" fill="#009B42"/>
<path d="M32.2053 33.11C40.6779 33.11 48.2698 36.5564 53.3581 41.9664C50.1936 41.0188 46.8603 40.5219 43.4936 40.5219C26.3366 40.5219 12.3791 53.0954 12.3791 68.5515V143.602L4.48145 136.88V58.085C4.48145 44.3139 16.9196 33.11 32.2053 33.11Z" fill="#C60051"/>
<path d="M24.3172 136.855L15.7698 143.738V76.2931C17.3194 80.5628 20.2975 84.2863 24.3172 86.9794V136.855Z" fill="#C60051"/>
<path d="M50.2096 96.9666C44.5352 96.93 38.891 94.8023 34.8395 90.6902C32.3646 88.1787 30.6271 84.9919 29.7559 81.5822C28.8036 77.8555 29.2702 74.1464 29.2702 70.3544L37.1806 63.6321V67.6056C37.1806 77.1086 44.36 85.07 52.9218 88.2918C53.8089 88.6246 54.7198 88.9002 55.6403 89.1247C59.3511 90.0341 63.2641 90.0962 67.0019 89.3031C66.6659 89.3747 65.7549 90.7922 65.4427 91.0884C64.9044 91.5964 64.3311 92.0774 63.7434 92.5265C62.4917 93.482 61.1316 94.2943 59.7015 94.952C56.7233 96.3232 53.4617 96.9873 50.2096 96.9666Z" fill="#009B42"/>
<path d="M83.3179 67.655C83.3068 67.7043 83.2956 67.7553 83.2845 67.8047C82.6315 70.6761 81.6728 73.5316 79.9767 75.9635C76.2293 81.3353 70.4052 85.9268 63.7322 86.6801C63.1127 86.7501 62.4884 86.7852 61.8641 86.7852C55.3855 86.7852 49.5805 84.1542 45.6738 80.0278C47.233 80.4913 49.0374 80.8257 51.0536 80.8257C53.4791 80.8257 56.1993 80.3479 59.1153 79.0611C59.128 79.0563 59.1392 79.0516 59.1488 79.0436C59.1663 79.0356 59.1902 79.0261 59.2093 79.0165C59.2156 79.0085 59.2236 79.0085 59.2316 79.0054C61.3226 78.3843 63.5873 76.3107 65.1926 74.8965C66.9238 73.3724 68.467 71.6667 69.7682 69.762C72.9072 65.1705 74.3548 59.8831 74.7036 54.3775C75.0301 49.2191 74.7482 43.5352 73.0393 38.6268C72.732 37.7429 72.3721 36.8781 71.9596 36.0388C72.079 36.2825 72.7431 36.5803 72.9725 36.7491C73.3626 37.0358 73.7465 37.332 74.1223 37.6378C74.8374 38.2207 75.5254 38.837 76.1815 39.4884C77.4683 40.7656 78.6309 42.1703 79.6311 43.6833C84.197 50.6031 85.0985 59.6745 83.3179 67.655Z" fill="#F4B503"/>
<path d="M28.9246 142.623V113.781H33.5542L35.1261 119.091H34.7439V128.775H35.1261V142.623H28.9246ZM40.3944 135.063C38.5534 135.063 36.9608 134.644 35.615 133.81C34.2693 132.975 33.2293 131.749 32.4936 130.135C31.7562 128.521 31.3899 126.539 31.3899 124.189C31.3899 121.924 31.7642 119.976 32.5159 118.349C33.266 116.721 34.3219 115.468 35.6803 114.589C37.0404 113.711 38.625 113.271 40.4374 113.271C42.3342 113.271 43.9984 113.732 45.4286 114.652C46.8587 115.573 47.9767 116.855 48.7842 118.497C49.5916 120.139 49.9946 122.037 49.9946 124.189C49.9946 126.313 49.5837 128.196 48.7635 129.838C47.9417 131.48 46.8094 132.762 45.3649 133.682C43.9204 134.601 42.2625 135.063 40.3944 135.063ZM39.2477 129.242C40.5218 129.242 41.5761 128.767 42.4122 127.82C43.2467 126.871 43.6656 125.66 43.6656 124.187C43.6656 122.687 43.2467 121.462 42.4122 120.513C41.5761 119.564 40.5218 119.089 39.2477 119.089C38.0007 119.089 36.9544 119.564 36.104 120.513C35.2551 121.462 34.8299 122.673 34.8299 124.144C34.8299 125.646 35.2551 126.871 36.104 127.818C36.9528 128.769 38.0007 129.242 39.2477 129.242Z" fill="#383838"/>
<path d="M58.7872 134.765C57.7393 134.765 56.7758 134.553 55.8983 134.128C55.0208 133.703 54.3121 133.045 53.7738 132.153C53.2355 131.261 52.9663 130.065 52.9663 128.564V105.625H59.1249V126.355C59.1249 127.403 59.316 128.075 59.6982 128.372C60.0804 128.67 60.5693 128.818 61.1634 128.818V134.553C60.8799 134.609 60.5056 134.66 60.0374 134.701C59.5692 134.743 59.1551 134.765 58.7872 134.765Z" fill="#383838"/>
<path d="M70.5963 135.104C69.0945 135.104 67.771 134.813 66.6244 134.233C65.4777 133.654 64.5922 132.838 63.9695 131.79C63.3468 130.742 63.0347 129.526 63.0347 128.137C63.0347 126.665 63.3739 125.412 64.0539 124.377C64.734 123.343 65.6465 122.544 66.7932 121.977C67.9399 121.411 69.2219 121.128 70.6377 121.128C72.7049 121.128 74.3755 121.594 75.6496 122.529C76.9237 123.464 77.7741 124.81 78.1977 126.565L75.5222 126.098V121.255C75.5222 120.491 75.253 119.825 74.7147 119.258C74.1764 118.693 73.3133 118.409 72.1236 118.409C71.3592 118.409 70.4816 118.502 69.4894 118.685C68.4973 118.869 67.478 119.215 66.4317 119.725L64.605 115.307C65.8504 114.684 67.1882 114.189 68.6199 113.821C70.05 113.453 71.5152 113.268 73.017 113.268C74.9425 113.268 76.5574 113.608 77.8601 114.288C79.1629 114.968 80.1327 115.93 80.7698 117.177C81.4068 118.424 81.7253 119.866 81.7253 121.51V134.55H76.6704L75.4394 130.515L78.2009 129.666C77.747 131.365 76.8839 132.696 75.6098 133.658C74.3357 134.62 72.6635 135.104 70.5963 135.104ZM72.5074 130.687C73.4423 130.687 74.186 130.446 74.737 129.963C75.2897 129.483 75.5652 128.874 75.5652 128.137C75.5652 127.344 75.2897 126.721 74.737 126.267C74.1844 125.815 73.4407 125.587 72.5074 125.587C71.5726 125.587 70.8368 125.813 70.2985 126.267C69.7602 126.721 69.491 127.344 69.491 128.137C69.491 128.874 69.7602 129.483 70.2985 129.963C70.8368 130.446 71.5726 130.687 72.5074 130.687Z" fill="#383838"/>
<path d="M98.6324 113.271C100.02 113.271 101.152 113.506 102.031 113.972C102.908 114.439 103.582 115.084 104.049 115.906C104.515 116.727 104.828 117.654 104.984 118.688C105.138 119.721 105.218 120.79 105.218 121.895V134.553H99.0162V122.235C99.0162 121.045 98.8044 120.26 98.3792 119.878C97.9539 119.495 97.387 119.304 96.6799 119.304C96.0858 119.304 95.4695 119.425 94.8325 119.666C94.1954 119.906 93.5791 120.239 92.985 120.664C92.391 121.09 91.8654 121.57 91.4132 122.109L90.3079 118.965H92.0502V134.555H85.8486V113.781H90.4369L91.711 117.901L89.5865 117.731C90.3222 116.909 91.1583 116.159 92.0932 115.479C93.028 114.799 94.0473 114.262 95.151 113.864C96.253 113.469 97.414 113.271 98.6324 113.271Z" fill="#383838"/>
<path d="M122.122 113.271C123.509 113.271 124.641 113.506 125.52 113.972C126.398 114.439 127.071 115.084 127.538 115.906C128.005 116.727 128.317 117.654 128.473 118.688C128.627 119.721 128.707 120.79 128.707 121.895V134.553H122.505V122.235C122.505 121.045 122.294 120.26 121.868 119.878C121.443 119.495 120.876 119.304 120.169 119.304C119.575 119.304 118.959 119.425 118.322 119.666C117.685 119.906 117.068 120.239 116.474 120.664C115.88 121.09 115.355 121.57 114.902 122.109L113.799 118.965H115.541V134.555H109.339V113.781H113.928L115.202 117.901L113.077 117.731C113.813 116.909 114.649 116.159 115.584 115.479C116.519 114.799 117.538 114.262 118.642 113.864C119.744 113.469 120.905 113.271 122.122 113.271Z" fill="#383838"/>
<path d="M141.79 134.936C139.723 134.936 137.903 134.498 136.332 133.618C134.76 132.741 133.542 131.494 132.679 129.881C131.814 128.266 131.384 126.369 131.384 124.189C131.384 122.037 131.816 120.139 132.679 118.497C133.542 116.855 134.76 115.573 136.332 114.652C137.904 113.732 139.723 113.271 141.79 113.271C143.915 113.271 145.754 113.754 147.312 114.716C148.869 115.679 150.073 116.974 150.922 118.603C151.771 120.233 152.196 122.066 152.196 124.104C152.196 124.472 152.182 124.826 152.153 125.167C152.124 125.506 152.096 125.777 152.069 125.974H136.224V121.556H147.312L146.59 123.383C146.59 121.825 146.2 120.551 145.423 119.561C144.644 118.57 143.448 118.073 141.833 118.073C140.389 118.073 139.234 118.513 138.371 119.39C137.506 120.268 137.076 121.429 137.076 122.873V125.21C137.076 126.767 137.522 127.977 138.414 128.842C139.306 129.707 140.545 130.137 142.131 130.137C143.462 130.137 144.517 129.868 145.295 129.33C146.074 128.791 146.732 128.126 147.27 127.332L151.476 129.669C150.57 131.339 149.296 132.636 147.654 133.556C146.009 134.475 144.055 134.936 141.79 134.936Z" fill="#383838"/>
<path d="M159.885 113.781L161.5 119.516V134.553H155.298V113.781H159.885ZM160.14 122.956L159.078 122.489V117.689L159.46 117.18C159.799 116.699 160.288 116.146 160.925 115.523C161.562 114.901 162.312 114.37 163.177 113.931C164.04 113.493 164.926 113.273 165.832 113.273C166.284 113.273 166.695 113.302 167.063 113.357C167.431 113.415 167.729 113.514 167.955 113.655V119.304H166.553C164.741 119.304 163.317 119.596 162.283 120.175C161.251 120.755 160.536 121.682 160.14 122.956Z" fill="#383838"/>
</svg>
